<svg width="22" height="22" viewBox="0 0 22 22" fill="none" xmlns="http://www.w3.org/2000/svg">
<path d="M21.3096 4.8096L17.1904 0.690397C16.7483 0.248346 16.1488 3.26895e-06 15.5237 0H2.35714C1.05531 0 0 1.05531 0 2.35714V19.6429C0 20.9447 1.05531 22 2.35714 22H19.6429C20.9447 22 22 20.9447 22 19.6429V6.47635C22 5.8512 21.7517 5.25165 21.3096 4.8096V4.8096ZM11 18.8571C9.26426 18.8571 7.85714 17.45 7.85714 15.7143C7.85714 13.9785 9.26426 12.5714 11 12.5714C12.7357 12.5714 14.1429 13.9785 14.1429 15.7143C14.1429 17.45 12.7357 18.8571 11 18.8571ZM15.7143 3.90304V8.83929C15.7143 9.16472 15.4504 9.42857 15.125 9.42857H3.73214C3.40671 9.42857 3.14286 9.16472 3.14286 8.83929V3.73214C3.14286 3.40671 3.40671 3.14286 3.73214 3.14286H14.9541C15.1104 3.14286 15.2603 3.20493 15.3708 3.31547L15.5417 3.48636C15.5964 3.54107 15.6398 3.60603 15.6694 3.67753C15.6991 3.74902 15.7143 3.82565 15.7143 3.90304V3.90304Z" fill="#424242"/>
</svg>
